<?xml version="1.0" encoding="utf-8"?>
<!-- Generator: Adobe Illustrator 25.0.1, SVG Export Plug-In . SVG Version: 6.00 Build 0)  -->
<svg version="1.1" id="Calque_1" xmlns="http://www.w3.org/2000/svg" xmlns:xlink="http://www.w3.org/1999/xlink" x="0px" y="0px"
	 viewBox="0 0 595.3 841.9" style="enable-background:new 0 0 595.3 841.9;" xml:space="preserve">
<style type="text/css">
	.st0{fill:#FFFFFF;}
</style>
<g id="Group_5343" transform="translate(5919.368 -12850)">
	<g id="شعار-مستشفى-أبها_page-0001" transform="translate(0 0)">
		<path id="Path_4860" class="st0" d="M-5607.2,12886.1c-0.5,0-2.5,0.1-4.4,0.2c-1.9,0.1-3.9,0.2-4.6,0.3c-0.7,0.1-2.1,0.2-3.2,0.3
			c-0.9,0.1-1.7,0.2-2.6,0.3c-0.3,0.1-1.4,0.3-2.3,0.4c-1,0.1-2.1,0.3-2.6,0.4c-0.4,0.1-1.6,0.3-2.6,0.5c-1,0.2-2.1,0.4-2.4,0.5
			s-1,0.2-1.6,0.4c-1.3,0.3-2.2,0.5-4.8,1.2c-1.2,0.3-2.5,0.7-3,0.8c-2.3,0.6-6,1.9-11.3,3.9c-2.1,0.8-2.2,0.9-4.5,1.9
			c-1,0.4-2,0.9-2.3,1c-1.2,0.5-7,3.4-7.6,3.8c-0.3,0.2-1.1,0.6-1.8,1c-0.5,0.2-0.9,0.5-1.3,0.8c0,0.1-0.1,0.1-0.2,0.1
			c-0.8,0.4-1.6,0.9-2.4,1.4c-3.6,2.2-3.7,2.3-4,2.4c-0.1,0.1-0.2,0.1-0.3,0.2c-0.1,0.1-2.3,1.6-3.3,2.2c-1.2,0.7-6.6,4.7-7.2,5.3
			c-0.1,0.1-0.5,0.4-0.8,0.6c-0.5,0.4-1.7,1.3-2.3,1.8c-0.1,0.1-0.5,0.4-0.9,0.8c-0.7,0.6-1.4,1.2-2.1,1.8c-0.2,0.2-1.1,1-2.1,1.8
			c-2.5,2.2-7.4,7-10.8,10.7c-1.1,1.2-3.3,3.7-4.6,5.3c-0.5,0.7-1.3,1.6-1.6,2c-1.4,1.6-4.6,6-6.6,9c-0.7,1.1-1.6,2.3-1.9,2.7
			c-0.3,0.4-0.9,1.4-1.4,2.1l-1.7,2.8c-0.5,0.8-1.2,2-1.7,2.8c-0.4,0.8-0.9,1.6-1.4,2.3c-0.2,0.3-0.3,0.5-0.5,0.8
			c-0.2,0.4-0.9,1.6-1.5,2.7c-1.7,3.3-5,10-5.7,11.7c-0.2,0.4-0.6,1.4-0.9,2.1c-0.6,1.2-2.9,7-2.9,7.2c-0.1,0.2-0.2,0.5-0.3,0.7
			c-0.1,0.3-0.4,0.9-0.5,1.2c-0.1,0.2-0.2,0.5-0.2,0.7c0,0.2-0.1,0.4-0.2,0.6c-0.1,0.2-0.2,0.5-0.3,0.7c0,0.2-0.4,1.4-0.9,2.7
			c-0.8,2.5-1.3,4-2.1,7c-0.3,1-0.6,2.3-0.7,2.8s-0.3,1.3-0.4,1.7c-0.1,0.4-0.3,1.3-0.5,2.1c-0.2,0.7-0.4,1.6-0.5,2.1
			c-0.1,0.4-0.3,1.3-0.4,1.9c-0.5,2-1.5,7.2-1.6,8.1c-0.1,0.4-0.3,1.6-0.4,2.5s-0.4,2.2-0.5,2.8c-0.1,0.6-0.2,1.5-0.3,2
			c-0.1,0.4-0.2,1.5-0.3,2.3c-0.1,0.8-0.2,1.8-0.3,2.3c-0.2,1.2-0.8,5.9-1,8.2c-0.1,1.1-0.2,2.2-0.2,2.5c0,0.3-0.1,1.8-0.2,3.4
			c-0.1,1.6-0.3,3.6-0.3,4.6c-0.5,8.3-0.6,16.7-0.2,25.1c0.4,8.6,1.3,17.1,2.6,25.6c0.2,0.9,0.3,1.5,0.4,3c0,0.3,0.1,0.7,0.2,1
			c0.1,0.1,0.2,0.3,0.1,0.5c0,0.5,0.5,3.4,1.2,6.2c0.1,0.4,0.3,1.6,0.6,2.7c0.2,1.1,0.6,2.6,0.7,3.2c0.2,0.6,0.4,1.6,0.6,2.2
			c0.1,0.6,0.3,1.4,0.4,1.7c0.2,0.8,0.4,1.7,0.6,2.5c0.1,0.3,0.3,1.1,0.5,1.7c0.6,2.4,2,6.7,2.7,8.7c0.2,0.5,0.3,1,0.3,1.5
			c0,0.6-0.1,0.7-1.3,1.7c-0.7,0.6-1.5,1.2-1.8,1.4c-0.3,0.2-0.7,0.5-0.8,0.6c-0.2,0.1-0.8,0.7-1.5,1.2c-1.7,1.4-4,3.2-4.4,3.6
			c-0.2,0.2-0.8,0.6-1.3,1c-1,0.8-2,1.6-2.9,2.5c0,0.1-0.1,0.1-0.2,0.1c-0.4,0.2-0.8,0.5-1.1,0.9c-0.5,0.5-1.5,1.3-2.2,1.9
			c-0.7,0.5-1.4,1.1-1.6,1.2c-0.4,0.3-2.6,2.2-4.3,3.6c-0.5,0.4-1.1,0.9-1.3,1.1c-0.2,0.2-1,0.9-1.8,1.5c-0.8,0.6-1.6,1.4-1.9,1.6
			c-0.3,0.2-1.2,1-2,1.7c-0.5,0.4-1.1,0.9-1.5,1.4c0,0.1-0.3,0.3-0.7,0.5c-0.4,0.2-0.7,0.4-1,0.7c-0.4,0.4-0.9,0.8-1.3,1.2
			c-0.6,0.5-1.4,1.3-1.9,1.6c-0.4,0.4-1.1,1-1.4,1.2c-1.5,1.3-2.4,2.2-2.8,2.5c-0.2,0.2-0.8,0.8-1.3,1.2c-0.5,0.4-1.2,1.1-1.6,1.5
			c-0.4,0.4-1.2,1.1-1.7,1.6c-0.5,0.5-1.7,1.6-2.7,2.4c-0.9,0.9-1.8,1.7-2,1.8c-0.6,0.5-4.5,4.2-5.4,5c-0.5,0.4-2.6,2.5-4.8,4.6
			c-2.2,2.1-4,3.9-4.1,4c-0.1,0.1-1.9,2-4.1,4.1c-4.7,4.8-11,11.4-13.8,14.5c-0.3,0.3-0.8,0.8-1.1,1.2c-0.3,0.3-1,1.1-1.6,1.7
			s-1.1,1.2-1.2,1.3c-0.1,0.1-0.6,0.7-1.2,1.4c-0.6,0.7-1.2,1.3-1.3,1.4c-0.1,0.1-0.6,0.6-1.1,1.2s-1.2,1.5-1.6,1.9
			c-0.4,0.5-1.2,1.4-1.8,2.1c-0.6,0.7-1.2,1.4-1.3,1.6c-0.1,0.2-0.8,1-1.5,1.8c-0.7,0.8-1.4,1.7-1.5,1.8c-0.3,0.3-0.6,0.7-0.9,1.1
			c-0.3,0.4-0.7,0.9-0.8,1c-0.7,0.8-8.5,10.9-9.6,12.4c-0.2,0.4-1,1.4-1.6,2.2c-0.6,0.9-1.5,2.1-2,2.7c-1.2,1.8-1.6,2.3-1.8,2.5
			c-0.3,0.3-5.3,7.7-5.3,7.8c0,0-0.4,0.7-0.9,1.4c-1,1.3-1.8,2.7-2.6,4.2c-0.1,0.2-0.2,0.4-0.3,0.5c-0.6,0.7-1.1,1.5-1.5,2.3
			c-0.4,0.9-0.9,1.7-1.6,2.4c-0.1,0-0.2,0.1-0.2,0.2c-0.1,0.4-0.2,0.8-0.5,1.1c0,0-0.4,0.6-0.7,1.3c-0.3,0.7-0.8,1.5-1.2,2.1
			c-0.2,0.2-0.3,0.5-0.4,0.7c-0.2,0.4-0.7,1.3-1.1,2.1c-1.6,3-1.9,3.6-3.1,5.9c-0.7,1.3-1.3,2.5-1.3,2.6c-0.4,0.7-2.4,5-3.9,8.3
			c-0.4,1-0.9,2.1-1.1,2.4c-0.1,0.2-0.2,0.5-0.3,0.8c-0.1,0.5-0.3,1-0.6,1.5c-0.3,0.7-0.8,1.8-1,2.4c-0.2,0.5-0.4,0.9-0.6,1.4
			c-0.1,0.2-0.1,0.4-0.1,0.5c-0.1,0.4-0.2,0.8-0.4,1.1c-0.2,0.4-0.3,0.7-0.4,1.1c-0.1,0.3-0.2,0.7-0.3,1c-0.1,0.3-0.3,0.6-0.3,0.9
			c0,0.2-0.1,0.3-0.2,0.5c-0.4,0.8-3.3,9.6-4.3,13.3c-0.9,3.1-1.6,6.3-2.3,9.4c-0.5,2.1-0.9,4.1-1,4.4c-0.1,0.3-0.2,0.7-0.2,1.1
			c0,0.5-0.1,0.9-0.2,1.4c-0.2,0.8-0.3,1.5-0.4,2.3c-0.2,1.4-0.2,1.9-0.7,5.1c-0.1,1-0.3,2.5-0.4,3.5c-0.1,1-0.3,2.4-0.3,3.1
			c-0.7,9.1-0.7,18.3-0.1,27.4c0.5,4.9,0.5,5.6,1.2,10.1c0.2,1.2,0.4,2.6,0.4,3c0.1,0.8,0.2,1.6,0.6,3.5c0.1,0.7,0.3,1.7,0.4,2.2
			c0.3,1.5,2,8.6,2.4,9.9c0.1,0.4,0.3,1,0.4,1.4c0.9,3.3,3.8,12,4.5,13.7c0.2,0.5,0.7,1.7,0.9,2.6c0.1,0.4,0.4,1,0.5,1.4
			c0.2,0.4,0.4,1,0.6,1.4c0.1,0.4,0.4,1.1,0.6,1.4c0.1,0.3,0.2,0.5,0.3,0.8c0,0,0.2,0.5,0.5,1.1c0.2,0.4,0.4,0.8,0.5,1.2
			c0.1,0.4,0.3,0.8,0.5,1.2c0.3,0.6,0.7,1.5,0.9,1.9c0.9,2,3.8,7.9,4.5,9.1c0.3,0.6,2.6,4.9,3.4,6.4c0.3,0.6,0.6,1.1,1,1.7
			c0.1,0.2,0.3,0.4,0.3,0.6c0,0.1,2,3.6,2.5,4.2c0.1,0.2,0.3,0.6,0.5,0.7c0.1,0.2,0.5,0.9,1,1.6c0.4,0.7,0.9,1.5,1.1,1.8
			c0.2,0.3,0.7,1.1,1.1,1.7c0.4,0.6,0.8,1.3,0.9,1.4s0.4,0.6,0.6,1c0.3,0.4,1.5,2.2,2.6,3.8c1.1,1.7,2.5,3.7,3,4.4
			c0.4,0.5,0.7,0.9,1,1.5c0,0.1,0.1,0.2,0.1,0.2c0.3,0.4,0.7,0.8,0.9,1.2c0.5,0.6,1.1,1.4,1.4,1.8c0.3,0.3,0.5,0.6,0.7,1
			c0.1,0.2,0.8,1.1,1.6,2.1c1.4,1.8,2.2,2.8,3,3.9c0.3,0.4,0.5,0.7,0.8,1c0.2,0.2,0.8,0.9,1.2,1.5c0.4,0.6,0.9,1.1,0.9,1.1
			c0,0.1,0.5,0.6,0.9,1.2c0.6,0.9,1.3,1.7,2.1,2.5c0.3,0.3,0.6,0.6,0.8,1c0.5,0.8,3.2,3.8,6,7c1.5,1.7,3.5,4,4.5,5
			c0.6,0.6,1.9,2,2.9,3.1c2.1,2.3,13.2,13.5,16.7,16.7c2.6,2.5,4.9,4.6,7.6,7c1,0.9,2,1.8,2.3,2c0.7,0.7,1.3,1.2,2.4,2.1
			c0.6,0.5,1.3,1.1,1.5,1.3c0.2,0.2,1,0.9,1.7,1.5s1.4,1.3,1.6,1.4c0.1,0.1,0.7,0.6,1.2,1c0.5,0.4,1.1,0.9,1.3,1.1
			c0.2,0.2,0.8,0.7,1.3,1.1c0.5,0.4,1.1,1,1.4,1.2c0.3,0.2,0.8,0.7,1.2,1c2.2,1.8,3.4,2.9,3.4,3c0.1,0.1,0.2,0.2,0.3,0.1
			c0.1,0,0.2,0,0.3,0.1c0.4,0.4,0.8,0.8,1.3,1.1c0.7,0.5,1.4,1.2,1.6,1.4c0.2,0.2,1,0.8,1.7,1.4c0.7,0.5,1.4,1.1,1.5,1.2
			c0.2,0.2,0.9,0.8,3.2,2.5c0.5,0.4,1,0.8,1.1,0.9c0.7,0.7,1.5,1.3,2.3,1.9c0.2,0,0.1-0.1,0-0.4c-0.1-0.1-0.5-0.7-1-1.4
			c-0.4-0.6-1-1.4-1.2-1.6c-0.4-0.5-3-4.2-3.4-4.8c-0.2-0.3-0.3-0.5-0.6-0.7c-0.2-0.2-0.4-0.5-0.6-0.7c-0.1-0.2-0.4-0.7-0.8-1.1
			c-0.3-0.5-1.1-1.5-1.6-2.4c-0.6-0.9-1.1-1.6-1.2-1.6c-0.2-0.2-0.3-0.4-0.4-0.6c-0.3-0.5-1.1-1.7-2.2-3.2c-0.6-0.8-1.1-1.6-1.6-2.5
			c-0.2-0.3-0.3-0.6-0.5-0.8c-0.2-0.3-0.8-1.2-1.4-2c-0.5-0.8-1.5-2.4-2.3-3.4s-1.3-2-1.3-2s-0.8-1.3-1.7-2.7s-1.7-2.7-1.7-2.7
			c0-0.1-1.2-1.9-1.4-2.1c-0.4-0.5-0.7-1-1-1.6c-0.4-0.8-0.9-1.5-1-1.6c-1-1.5-2.5-4-2.5-4.1c-0.2-0.3-0.4-0.7-0.6-1
			c-0.2-0.3-0.4-0.6-0.6-1c0-0.1-2-3.5-2.6-4.4c-0.2-0.2-0.3-0.4-0.4-0.7c-0.1-0.3-0.2-0.5-0.4-0.7c-0.2-0.3-0.7-1.2-1-1.8
			c-0.4-0.7-0.9-1.6-1.2-2.1s-0.7-1.2-0.9-1.6c-1-1.8-4.4-8.2-4.9-9.2c-0.2-0.5-1.3-2.5-2.3-4.5s-2.2-4.4-2.6-5.2
			c-0.4-0.8-0.8-1.7-0.9-1.9c-0.3-0.6-1.2-2.4-1.6-3.5c-0.2-0.5-0.7-1.5-1-2.1c-0.8-1.8-1.4-3.1-1.4-3.2c0,0-0.3-0.6-0.6-1.3
			c-0.3-0.7-0.6-1.3-0.6-1.3c0,0-0.3-0.7-0.6-1.4c-0.3-0.8-0.8-1.8-1-2.4c-0.1-0.4-0.3-0.8-0.5-1.1c-0.1-0.1-0.2-0.2-0.1-0.3
			c-0.1-0.4-0.2-0.7-0.3-1c-0.2-0.4-0.4-0.9-0.5-1.1c-0.1-0.2-0.3-0.8-0.5-1.3c-0.2-0.5-0.5-1.2-0.6-1.5c-0.1-0.3-0.5-1.3-0.8-2.2
			c-0.4-1-0.9-2.4-1.2-3.1c-0.3-0.8-0.6-1.5-0.7-1.7c-0.1-0.2-0.2-0.7-0.4-1.1c-0.1-0.4-0.4-1.2-0.6-1.7c-0.9-2.4-2.5-7.1-2.6-7.7
			c-0.1-0.3-0.5-1.6-0.9-2.9s-0.9-2.9-1.1-3.5s-0.5-1.7-0.7-2.3c-1.4-4.6-4.1-16-4.9-20.6c-0.2-1-0.4-2.2-0.5-2.6
			c-0.2-0.9-0.4-2.3-0.7-3.6c-0.1-0.6-0.2-1.5-0.3-2c-0.2-1.1-0.6-4.2-0.9-6.8c-0.1-1.1-0.3-2.5-0.4-3.2c-0.3-2-0.5-4.1-0.7-8.3
			c-0.1-2.2-0.3-4.7-0.4-5.6c-0.2-2.2-0.1-16.9,0.1-20.3c0.5-7.2,0.9-11.4,1.6-16.2c0.2-1.6,0.5-3.4,0.6-4c0.1-0.6,0.2-1.5,0.3-2
			c0.1-0.5,0.3-1.4,0.3-1.9s0.2-1.3,0.3-1.7s0.2-1.2,0.3-1.6c0.4-2.4,1.5-7.3,2.2-10.1c0.2-0.9,0.5-1.8,0.6-2.1
			c0.3-1.2,0.9-3.4,1.4-5.1c0.1-0.5,0.4-1.3,0.5-1.8c0.2-0.9,1.8-5.7,2-6.3c0.1-0.2,0.4-1.2,0.7-2.1c0.7-2.3,1.8-5.2,2.4-6.8
			c0.3-0.6,0.6-1.6,0.8-2.1c0.4-1.2,0.5-1.5,0.9-2.3c0.1-0.2,0.2-0.5,0.3-0.7c0.1-0.2,0.1-0.4,0.2-0.6c0.4-0.9,1.6-3.6,1.9-4.3
			c0.2-0.6,0.4-1.1,1.2-2.9c2.2-4.8,7.1-14.8,8.9-17.9c0.2-0.4,0.6-1.1,1-1.7s0.6-1.2,0.7-1.2c0.1-0.1,0.4-0.8,0.8-1.5
			c0.8-1.6,0.9-1.7,1.6-2.9c0.3-0.5,0.9-1.5,1.2-2.1c1.1-1.9,3.7-6.1,4-6.6c0.2-0.2,1-1.5,1.7-2.7c1.5-2.3,2.9-4.5,3.1-4.7
			c0.4-0.5,0.7-1.1,1-1.6c0-0.1,0.1-0.2,0.1-0.2c0.9-1.1,1.7-2.3,2.5-3.6c0.6-0.9,1.8-2.7,2-2.8c0.1-0.1,0.2-0.2,0.3-0.3
			c0.5-0.8,1-1.6,1.6-2.3c0.1-0.1,0.2-0.3,0.2-0.4c0-0.2,0.2-0.4,0.3-0.6c0.7-0.8,1.4-1.7,2-2.6c0.2-0.3,0.4-0.6,0.7-0.9
			c0.2-0.3,1-1.3,1.7-2.2c0.7-1,1.4-2,1.7-2.2c0.2-0.3,0.7-0.9,1-1.4c0.7-0.9,1-1.4,3.4-4.4c0.8-1,2.1-2.6,2.8-3.5
			c0.7-0.9,1.4-1.8,1.6-1.9c0.1-0.2,0.6-0.7,1-1.3s0.9-1.2,1.1-1.4c0.2-0.2,0.8-1,1.4-1.6c0.6-0.7,1.1-1.3,1.1-1.3s0.3-0.4,0.6-0.7
			c0.3-0.3,0.6-0.8,0.7-0.9c0.1-0.1,0.8-0.9,1.5-1.7c1.3-1.5,4-4.6,5.9-6.8c1.2-1.4,1.3-1.5,2.2-2.6c0.4-0.4,0.8-0.9,0.9-1.1
			c0.1-0.1,0.5-0.6,0.9-1c1.5-1.7,3.2-3.6,4.5-4.9c0.7-0.8,1.6-1.7,1.9-2.1c0.2-0.3,0.5-0.6,0.7-0.8c0.1-0.1,0.7-0.7,1.4-1.4
			c0.6-0.7,2.6-2.8,4.4-4.6s3.8-4,4.5-4.8c5.2-5.5,15.2-15.4,15.5-15.4c0.2,0,0.6,0.5,1.1,1.4c0.3,0.5,0.6,1,0.8,1.5
			c0.1,0.3,0.2,0.5,0.4,0.8c0.2,0.3,0.7,1.3,1.2,2.2c0.5,0.9,1,1.7,1.1,2c0.1,0.2,0.2,0.4,0.3,0.6c0.1,0.4,0.3,0.8,0.6,1.2
			c0.6,1,1.1,1.9,1.5,2.5c0.1,0.2,0.4,0.6,0.6,1c0.5,0.9,0.7,1.2,1.3,2.2c0.2,0.4,0.5,0.7,0.7,1c0.1,0.1,0.2,0.2,0.2,0.3
			c0,0.1,0.8,1.3,1.7,2.7c0.9,1.4,1.8,2.6,1.8,2.8c0.1,0.1,0.6,0.9,1.2,1.7c0.6,0.8,1.5,2,2,2.7c0.5,0.7,1.2,1.6,1.5,1.9
			c0.3,0.4,0.8,1,1.2,1.4c0.9,1.2,1,1.3,2.8,3.3c1,1.1,2,2.3,2.3,2.7c1.2,1.4,7.5,7.8,7.7,7.8c0.3,0.2,0.6,0.5,0.9,0.8
			c0.8,0.8,2.6,2.4,3.6,3.2c0.6,0.5,2.1,1.7,2.4,2c0.1,0.1,3.5,2.6,5.6,4.2c0.4,0.3,0.9,0.6,1.3,0.8c0.3,0.1,0.5,0.3,0.7,0.5
			c0.7,0.5,1.4,1,2.1,1.4c0.8,0.5,2.4,1.4,2.8,1.7c2.3,1.3,7.2,3.9,8.6,4.5c0.5,0.2,1.4,0.6,1.9,0.8s1.4,0.6,2,0.8
			c0.6,0.2,1.5,0.6,2.1,0.8c0.6,0.2,1.4,0.5,1.8,0.6c0.4,0.1,1.3,0.4,2,0.7c0.7,0.2,1.8,0.6,2.4,0.7c0.6,0.2,2,0.5,3.1,0.8
			c2.3,0.6,4,0.9,7.6,1.5c6.7,1.1,18.7,1,24.5-0.2c0.5-0.1,1.7-0.3,2.7-0.5c1-0.2,2.3-0.4,2.8-0.6c0.5-0.1,1.4-0.3,1.9-0.5
			c3.2-0.8,4.3-1.1,4.8-1.3c0.8-0.3,1.1-0.4,1.8-0.6c1-0.3,3.4-1.1,4.2-1.5c0.4-0.2,1.4-0.6,2.2-0.9c0.8-0.3,1.6-0.7,1.8-0.7
			c0.4-0.1,3.8-1.7,4.2-2l1.6-0.8c1.6-0.8,5.3-2.8,5.4-3c0.3-0.2,0.5-0.3,0.8-0.5c0.5-0.3,1-0.6,1.5-0.9c0.3-0.2,0.6-0.4,1-0.6
			c0.3-0.1,2.6-1.6,4-2.6c0.5-0.4,1.5-1.1,2.2-1.5c1.4-0.9,4.4-3.1,5.3-3.9c0.3-0.3,1.1-0.9,1.6-1.3c0.6-0.5,1.2-1,1.5-1.2l1.2-1.1
			c1-0.8,3-2.6,4.2-3.7c1-1,0.9-1.1-0.3-0.4c-0.5,0.3-1.8,1-3.1,1.6c-1.3,0.6-3,1.4-3.9,1.9c-2,1-3.1,1.5-4.5,2.1
			c-0.6,0.2-1.4,0.6-1.9,0.8c-0.4,0.2-1.2,0.5-1.6,0.7c-0.8,0.3-5.6,2.2-7,2.7c-0.4,0.2-1.5,0.5-2.4,0.9c-1.9,0.7-4.9,1.6-7.8,2.5
			c-1.2,0.3-2.3,0.7-2.5,0.8c-0.2,0.1-1.4,0.4-2.6,0.6c-1.3,0.3-2.5,0.6-2.8,0.7c-0.5,0.1-2.6,0.6-4.1,0.8c-1.3,0.2-3.9,0.6-4.8,0.8
			c-4.9,0.8-9.8,1.1-14.7,1c-4.9,0.1-9.8-0.3-14.6-1.2c-1.4-0.3-2.8-0.6-3.2-0.6c-1.2-0.2-2.3-0.5-3.5-0.8c-0.2-0.1-0.9-0.3-1.6-0.5
			c-0.7-0.2-1.5-0.4-1.9-0.5c-0.5-0.1-0.9-0.3-1.4-0.5c-0.3-0.1-0.5-0.2-0.8-0.3c-0.3,0-5.6-2.2-6.5-2.7c-0.6-0.3-2-1.1-3.2-1.7
			c-1.2-0.6-2.7-1.4-3.3-1.8c-0.4-0.3-0.8-0.5-1.2-0.7c-0.9-0.6-1.8-1.2-2.7-1.9c-0.1-0.1-0.2-0.2-0.4-0.2c-0.3-0.2-0.7-0.4-0.9-0.6
			c-0.4-0.3-1-0.8-1.3-0.9c-1.1-0.8-3-2.4-5.3-4.4c-2.6-2.4-5.1-5-7.5-7.7c-0.3-0.4-0.8-1-1.1-1.3c-0.7-0.8-4.3-5.5-4.8-6.3
			c-0.2-0.3-0.4-0.6-0.6-0.9c-0.3-0.3-2.1-3-2.8-4.3c-0.4-0.6-1-1.7-1.4-2.3c-1-1.7-3.7-6.6-4.5-8.4c-1.2-2.6-1.8-3.8-2-4.4
			c-0.1-0.3-0.3-0.6-0.3-0.6s-0.1-0.1-0.1-0.3c0-0.2,0-0.3-0.1-0.4c-0.2-0.2-0.3-0.5-0.4-0.7c-0.1-0.3-0.4-1-0.6-1.5
			c-0.4-0.9-1.9-4.6-2.2-5.4c-0.1-0.2-0.3-1-0.6-1.7c-0.2-0.7-0.9-2.7-1.5-4.4c-0.6-1.7-1.1-3.1-1.1-3.2c0-0.1,0.6-0.7,3.1-3
			c0.8-0.7,1.9-1.7,2.5-2.3c2.8-2.7,3.6-3.5,7.2-6.8c1.8-1.6,2.8-2.6,3.8-3.4c0.3-0.3,1-0.9,1.5-1.4c0.5-0.5,1.2-1.2,1.6-1.5
			c0.3-0.3,1.1-1,1.7-1.6c0.6-0.5,1.7-1.6,2.6-2.3c0.8-0.7,1.7-1.5,2-1.8c0.3-0.3,1.1-1,1.8-1.6c0.7-0.6,1.8-1.6,2.5-2.2
			c2.5-2.3,2.9-2.6,4-3.6c0.6-0.5,1.5-1.3,2-1.8c0.5-0.4,1.1-1,1.4-1.2s0.8-0.7,1.2-1c0.9-0.9,1.4-1.3,2.8-2.5
			c0.7-0.6,1.4-1.3,1.6-1.4c0.1-0.1,0.7-0.6,1.2-1.1c0.5-0.5,1.3-1.2,1.8-1.6c1-0.9,3.8-3.4,5.2-4.6c0.6-0.5,1.8-1.6,2.7-2.4
			c0.6-0.5,1.2-1,1.8-1.5c0.9-0.7,1.7-1.4,2.4-2.2c0.2-0.2,0.5-0.5,0.8-0.7c0.3-0.2,0.6-0.5,0.9-0.8c0.4-0.4,0.7-0.7,1.1-1
			c0.2-0.1,1-0.8,1.7-1.5c1.5-1.4,2.7-2.5,4.1-3.6c2.8-2.4,3.5-3,3.7-3.2c0.1-0.1,0.6-0.6,1.2-1.1c0.6-0.5,1.2-1,1.3-1.1
			c0.3-0.3,1-0.9,5.8-5.1c2.1-1.8,4.4-3.7,5-4.3c0.5-0.4,0.9-0.8,1.3-1.2c0-0.1,0.1-0.1,0.2-0.1c0.2-0.1,0.4-0.2,0.5-0.4
			c0.2-0.2,0.7-0.6,1-0.9c0.7-0.6,2.6-2.3,3.2-2.9c0.3-0.3,0.6-0.6,1-0.8c0.4-0.3,0.8-0.6,1.1-1c2.7-2.6,3-2.6,3.2-0.3
			c0.1,0.8,0.5,2.7,0.9,4.3c0.1,0.3,0.2,0.9,0.3,1.3c0.4,1.5,0.8,3,1.3,4.5c0.2,0.7,0.5,1.7,0.7,2.1c0.4,1.4,0.9,2.7,1.5,4.1
			c0.1,0.1,0.1,0.3,0.1,0.5c0.2,0.5,0.4,1.1,0.7,1.6c0.3,0.5,0.5,1,0.7,1.6c0,0.3,2.6,6,3.3,7.3c0.1,0.2,0.7,1.3,1.3,2.5
			c1.3,2.6,2.1,3.9,2.6,4.7c0.2,0.2,0.3,0.5,0.4,0.7c0.2,0.4,0.4,0.7,0.7,1.1c0.2,0.3,0.5,0.7,0.7,1.1c0,0.2,2.9,4.8,4,6.3
			c0.7,0.9,2.3,3.3,2.6,3.8c0.1,0.2,0.8,1.1,1.5,2c0.7,0.9,1.6,2.2,2.1,2.9c0.5,0.7,1,1.3,1,1.3c0.2,0.2,1.7,2,2.1,2.6
			c0.5,0.6,0.9,1.2,1.5,1.8c0.5,0.6,1,1.2,1.2,1.4c0.2,0.3,2.1,2.4,3.6,4.1c0.3,0.4,0.9,1,1.3,1.5c3.5,3.9,10.3,10.8,15,15.2
			c3.2,3,8.3,7.5,11.1,9.9c0.6,0.5,1.3,1.1,1.6,1.3c0.2,0.2,1,0.8,1.6,1.4c0.7,0.6,1.4,1.2,1.6,1.4c0.2,0.2,1,0.8,1.7,1.4
			c0.5,0.4,0.9,0.8,1.4,1.2c0.1,0.1,0.2,0.1,0.3,0.1c0.3,0.1,0.6,0.3,0.8,0.5c1.6,1.4,1.9,1.7,2.1,1.7c0.1,0,0.3,0.1,0.4,0.3
			c0.1,0.2,0.3,0.3,0.4,0.3c0.3,0.2,0.6,0.4,0.9,0.6c0.4,0.3,1.6,1.3,2.6,2c1,0.7,1.9,1.5,2.1,1.5c0.1,0.1,0.5,0.4,0.8,0.6
			c0.2,0.2,0.4,0.3,0.7,0.5c0.1,0.1,0.2,0.2,0.4,0.2c0.8,0.5,1.6,1,2.3,1.6c0.2,0.2,0.4,0.3,0.6,0.4c0.5,0.3,0.9,0.6,1.3,0.9
			c0.5,0.4,1.3,0.9,1.6,1.2s1.3,0.9,2.1,1.5c0.8,0.6,1.9,1.3,2.4,1.6c0.5,0.3,0.9,0.6,1,0.7c0.2,0.2,6,4.1,7.2,4.8
			c0.7,0.4,1.7,1.1,2.3,1.5s1.1,0.8,1.3,0.9c0.6,0.3,2.9,1.8,4.1,2.6c0.5,0.3,0.9,0.6,1.4,0.8c0.2,0.1,0.3,0.2,0.4,0.3
			c0.3,0.3,0.6,0.5,0.9,0.7c1.4,0.8,1.7,1,2.8,1.6c1.7,1.1,4.1,2.5,4.2,2.5c0.1,0,2.7,1.7,4.5,2.9c0.5,0.3,2.1,1.4,3.7,2.5
			c1.6,1.1,2.9,2,3,2c0,0,0.6,0.5,1.3,0.9c1.4,0.9,1.7,1.1,4.9,3.4c3.3,2.4,3.5,2.6,3.7,2.6c0.1,0,0.2,0.1,0.3,0.2
			c0.5,0.4,1,0.8,1.5,1.2c2.1,1.5,2.4,1.7,3.8,2.8c2.9,2.1,6.1,4.7,7.7,6c0.4,0.3,0.8,0.6,1.2,0.9c0.3,0.2,0.6,0.4,0.8,0.6
			c0.3,0.3,0.7,0.6,1.1,0.9c0.2,0.1,1.1,0.8,1.8,1.5c0.8,0.7,1.9,1.6,2.4,2c0.5,0.4,1.2,0.9,1.4,1.1s0.7,0.6,1.1,1
			c0.4,0.3,0.9,0.8,1.2,1c0.2,0.2,0.8,0.7,1.2,1c0.9,0.7,1.7,1.5,2.3,2c0.1,0.2,0.3,0.3,0.5,0.4c0,0,0.1,0,0.1,0s0,0.1,0.1,0.1
			c0.4,0.4,0.8,0.8,1.2,1.2c0.6,0.6,1.8,1.6,2.5,2.2c0.7,0.7,1.5,1.4,1.7,1.6c4.8,4.4,14.2,13.8,17.5,17.7c0.3,0.4,0.7,0.8,1.1,1.2
			c0.2,0.1,0.3,0.2,1.7,1.9c0.6,0.7,1.2,1.4,1.4,1.6c0.2,0.2,0.4,0.5,0.6,0.7c0.3,0.4,0.6,0.8,0.9,1.2c0.6,0.6,1.3,1.5,3.2,3.8
			c0.3,0.3,0.6,0.8,0.8,1c0.2,0.2,0.6,0.8,1,1.3c1.2,1.5,1.7,2.2,1.8,2.3c0.2,0.3,0.4,0.6,0.6,0.9c0.3,0.4,0.6,0.9,0.7,1
			c0.1,0.1,0.5,0.6,0.9,1.2c0.4,0.6,0.9,1.3,1.2,1.6c0.2,0.3,0.5,0.7,0.6,0.9c0.6,0.9,1.1,1.6,2.5,3.6c0.5,0.7,1,1.5,1.5,2.3
			c0.1,0.2,0.3,0.5,0.5,0.7c0.7,0.9,1.3,1.9,1.8,2.9c0.3,0.5,0.6,0.9,0.9,1.4c0.1,0.1,0.2,0.3,0.3,0.5c0.2,0.4,0.4,0.9,0.7,1.3
			c0.7,1.2,1.1,1.9,1.8,3c0.2,0.4,0.5,0.8,0.5,0.9c0.1,0.1,0.4,0.7,0.8,1.4c0.4,0.7,0.8,1.5,1,1.8c0.4,0.8,0.4,0.7,2.4,4.8
			c1.2,2.2,2.2,4.4,3.1,6.7c0,0.1,0.1,0.2,0.1,0.3c0.2,0.3,0.4,0.7,0.5,1.1c0.2,0.5,0.5,1.1,0.6,1.4c0.5,1.2,1.1,2.6,1.5,3.7
			c0.2,0.7,0.5,1.5,0.7,1.7c0.2,0.4,0.4,0.9,0.5,1.3c0.1,0.4,0.3,1,0.4,1.2c0.2,0.4,1.4,4.1,2,6.1c0.3,0.9,0.7,2.1,0.8,2.7
			c0.2,0.6,0.4,1.4,0.5,1.8c0.1,0.4,0.2,1,0.3,1.4c0.1,0.4,0.2,0.9,0.3,1.2c0.1,0.3,0.4,1.4,0.6,2.4c0.6,2.2,1.6,7,1.8,8.8
			c0.1,0.7,0.2,1.6,0.3,2.1c0.8,4.4,1.3,8.9,1.6,13.4c0.1,1.2,0.2,2.4,0.2,2.6c0,0.2,0.2,3,0.3,6.2c0.2,5.8,0.1,11.7-0.4,17.5
			c-0.2,3-0.7,8.8-1,10.6c-0.1,0.6-0.2,1.8-0.3,2.7s-0.2,2-0.3,2.5c-0.2,1.1-0.4,2.8-0.7,4.5c-0.3,2.2-1.6,9.3-2.5,12.9
			c-0.1,0.4-0.2,1.1-0.3,1.5c-0.4,1.9-0.5,2.7-0.9,4c-0.2,0.8-0.5,2-0.7,2.6c-0.1,0.7-0.4,1.6-0.5,2.1c-0.6,2.3-0.9,3.1-1.1,4.2
			c-0.3,1.4-0.4,1.8-0.9,3.3c-0.2,0.6-0.4,1.3-0.4,1.6c0,0.3-0.1,0.5-0.2,0.7c-0.1,0.2-0.2,0.6-0.3,1c-0.6,2.2-2.2,7.4-2.5,8.1
			c-0.1,0.2-0.3,0.8-0.5,1.5c-0.2,0.6-0.4,1.3-0.5,1.5c-0.1,0.2-0.3,0.9-0.5,1.6c-0.4,1.2-0.8,2.5-1.3,3.6c-0.1,0.3-0.4,1.1-0.6,1.8
			s-0.6,1.8-0.9,2.5c-0.2,0.5-0.3,0.9-0.5,1.4c-0.1,0.2-0.2,0.5-0.2,0.7c-0.1,0.5-0.3,1-0.5,1.4c-0.2,0.5-0.4,0.9-0.5,1.4
			c-0.1,0.3-0.6,1.6-1.1,2.9c-0.5,1.3-0.9,2.4-0.9,2.4c-0.1,0.3-0.2,0.6-0.3,0.8c-0.2,0.4-0.7,1.6-1.1,2.7c-1.4,3.4-3.4,8.4-3.9,9.4
			c-0.3,0.5-0.6,1.3-0.8,1.7s-0.5,1.2-0.7,1.6c-0.2,0.5-0.5,1.1-0.5,1.2c-0.2,0.4-0.9,2-1.4,3.1c-0.2,0.4-0.8,1.7-1.2,2.8
			c-0.5,1.1-1.1,2.5-1.4,3.1c-0.3,0.6-1.1,2.4-1.8,3.9c-3.4,7.3-10.6,21.9-14.1,28.5c-1.1,2.1-2.3,4.3-2.6,4.9
			c-0.2,0.5-0.5,0.9-0.8,1.4c-0.1,0.2-0.3,0.5-0.4,0.8c-0.1,0.2-0.6,1.2-1.1,2.1c-0.6,1-1.4,2.5-1.9,3.4c-1.1,2.1-1.9,3.5-2.2,4
			c-0.1,0.2-0.5,0.8-0.7,1.2c-1,1.9-1.7,3.2-2.5,4.5c-0.3,0.5-0.6,1-0.8,1.5c-0.2,0.5-0.5,0.9-0.7,1.3c-0.3,0.4-0.5,0.9-0.7,1.3
			c0,0-0.3,0.6-0.7,1.2c-0.4,0.6-0.7,1.1-0.7,1.2c0,0-0.2,0.4-0.5,0.9c-0.3,0.5-0.7,1.2-1,1.7c-0.2,0.4-0.6,1.1-0.9,1.5
			c-0.2,0.4-0.6,1.1-0.9,1.6c-0.3,0.5-0.7,1.2-0.8,1.5c-0.2,0.3-0.5,0.9-0.7,1.2c-0.2,0.4-0.7,1.2-1.1,1.9c-0.3,0.4-0.5,0.9-0.7,1.4
			c0.9-0.8,1.8-1.8,2.4-2.9c0.2-0.3,0.7-0.9,1-1.2c0.3-0.4,0.8-1,1.1-1.3c0.3-0.4,0.5-0.7,0.6-0.7c0.1,0,0.5-0.7,1.1-1.4
			c0.3-0.5,0.7-0.9,1.1-1.3c0.1,0,0.2-0.1,0.1-0.2c0.1-0.2,0.2-0.4,0.4-0.6c0.2-0.2,0.5-0.7,0.8-1c0.4-0.5,2.8-3.6,3.3-4.3
			c0.3-0.3,3.1-4,3.5-4.6c0.7-0.9,1.2-1.5,1.8-2.4c0.3-0.3,0.5-0.6,0.7-1c0.1-0.3,0.3-0.6,0.5-0.8c1.2-1.4,4.8-6.3,6.4-8.7
			c0.2-0.4,0.5-0.7,0.8-1.1c0.1-0.1,0.2-0.2,0.3-0.4c0.3-0.5,0.6-0.9,0.9-1.3c0.3-0.4,0.6-0.8,0.9-1.3c0.1-0.2,0.3-0.5,0.5-0.7
			c0.3-0.3,0.5-0.7,0.8-1c0.1-0.2,0.3-0.4,0.4-0.7c0.7-0.9,1.8-2.4,2.2-3c0.1-0.1,0.6-0.8,1.1-1.5c0.5-0.7,1-1.4,1.1-1.5
			c0.1-0.1,0.6-0.9,1.2-1.7c0.5-0.8,1.1-1.5,1.2-1.7c0.1-0.1,0.5-0.7,0.9-1.3c1.8-2.6,2.6-3.8,2.9-4.3c0.2-0.3,0.9-1.3,1.5-2.3
			c1.4-2,2.1-3,3-4.4c0.4-0.6,1.4-2.1,2.2-3.4c0.9-1.3,1.8-2.8,2.1-3.2c0.3-0.4,0.7-1.2,1-1.6c0.2-0.3,0.4-0.6,0.5-0.9
			c0.3-0.5,0.6-0.9,0.9-1.4c0.5-0.7,1-1.5,1.1-1.8c0.2-0.4,0.4-0.7,0.6-1c0.5-0.7,1.8-2.8,3.2-5.2c0.6-1.1,1.3-2.1,1.4-2.4
			c0.2-0.3,0.7-1.1,1.1-1.8c0.4-0.8,0.9-1.6,1.1-1.9c0.2-0.3,0.5-0.8,0.7-1.2c0.2-0.3,0.6-1,0.9-1.5c0.2-0.3,0.4-0.6,0.5-1
			c0.2-0.4,0.4-0.8,0.7-1.2c0.9-1.4,1.2-2,2-3.5c0.4-0.7,0.8-1.5,1.1-1.9c0.2-0.4,0.6-1.1,0.9-1.6c0.3-0.5,0.6-1,0.7-1.2
			s0.4-0.7,0.6-1.2c0.3-0.5,0.9-1.8,1.4-2.7c1.6-2.9,4.3-8.1,6.2-12.1c0.4-0.9,0.9-1.8,1-1.9c0.1-0.3,0.3-0.5,0.4-0.8
			c0.1-0.3,1-2.2,1.9-4.2c1.6-3.4,2.6-5.7,3.4-7.5c0.1-0.3,0.3-0.6,0.3-0.9c0.1-0.3,0.2-0.5,0.3-0.8c0.3-0.5,0.5-1.1,0.7-1.7
			c0.2-0.6,0.6-1.4,0.8-1.9c0.2-0.3,0.3-0.7,0.4-1c0.2-0.6,0.4-1.1,0.6-1.6c0.3-0.8,0.9-2.2,1.2-2.9c0.3-0.8,0.6-1.6,0.7-1.9
			c0.2-0.6,0.7-1.8,1.5-4c2-5.3,4.9-14.3,6-18.3c0.3-1.1,0.8-2.9,1.1-3.9c0.8-2.7,0.8-2.8,1.3-5.1c0.3-1.2,0.6-2.4,0.6-2.7
			c0.2-0.7,0.4-1.7,0.7-2.9c0.1-0.5,0.3-1.5,0.5-2.4c0.5-2.5,1.2-6.3,1.6-8.7c0.1-0.9,0.3-2,0.4-2.5c0.3-1.9,0.8-5.7,1.3-11.4
			c0.7-9.8,0.7-19.6-0.2-29.4c-0.1-0.7-0.2-1.8-0.2-2.5c-0.1-0.7-0.2-1.6-0.3-2.1c-0.1-0.5-0.3-1.6-0.4-2.6c-0.1-1-0.3-2.1-0.4-2.6
			s-0.3-1.5-0.4-2.4c-0.1-0.9-0.4-2.1-0.5-2.6c-0.1-0.5-0.3-1.4-0.4-1.9c-0.1-0.5-0.3-1.2-0.3-1.4c-0.1-0.2-0.3-1.2-0.5-2.1
			c-0.1-0.6-0.2-1.2-0.4-1.8c0-0.1-0.2-0.6-0.3-1.1c-0.1-0.5-0.4-1.5-0.6-2.1c-0.2-0.6-0.5-1.6-0.7-2.3c-0.2-0.7-0.4-1.4-0.5-1.5
			c-0.1-0.2-0.6-1.6-1.1-3.1c-0.9-2.5-1.1-3.1-1.4-4c-0.1-0.2-0.4-1.1-0.8-2.1c-0.4-1-0.9-2.3-1.2-2.9c-0.2-0.4-0.4-0.8-0.5-1.2
			c-0.2-0.5-0.3-0.9-0.6-1.3c-0.3-0.7-0.9-1.9-1.3-2.7c-0.9-1.9-4-8-4.4-8.8c-0.4-0.6-0.6-1.1-1.5-2.6c-0.3-0.5-0.8-1.3-1.1-1.8
			c-0.3-0.3-0.5-0.7-0.6-1.1c0-0.1-0.1-0.2-0.1-0.2c-0.1,0-0.2-0.2-0.4-0.4c-3.2-5.3-6.6-10.4-10.4-15.3c-0.5-0.6-1-1.2-1.1-1.4
			c-0.1-0.1-0.3-0.4-0.4-0.5c-0.1-0.1-0.7-0.9-1.4-1.7c-0.7-0.8-1.7-2.1-2.3-2.9c-0.6-0.8-1.2-1.5-1.3-1.6c-0.1-0.1-0.7-0.9-1.6-1.8
			c-1-1.2-3.3-3.7-6-6.6c-3-3.2-11.9-11.9-13.9-13.5c-0.3-0.3-1.3-1.1-2.2-1.9c-0.9-0.8-1.8-1.7-2.1-1.9c-0.3-0.2-0.6-0.4-0.8-0.7
			c-0.2-0.2-1.3-1.1-2.5-2.1c-1.2-1-2.4-2.1-2.8-2.4c-0.2-0.2-0.5-0.4-0.8-0.5c-0.3-0.1-0.5-0.3-0.7-0.5c-0.9-0.8-1.8-1.6-2.8-2.3
			c-0.2-0.2-0.4-0.3-0.6-0.5c-0.2-0.2-0.5-0.4-0.7-0.6c-0.4-0.3-1.2-0.9-1.9-1.5c-0.7-0.5-1.9-1.5-2.8-2.1c-0.9-0.6-1.7-1.2-1.8-1.4
			c-0.4-0.3-3.9-2.9-6.5-4.7c-1.3-0.9-2.6-1.8-3-2.1c-0.4-0.3-1-0.7-1.4-1c-0.4-0.3-1.2-0.8-1.8-1.2c-0.6-0.4-1.2-0.8-1.4-1
			c-0.2-0.1-0.5-0.3-0.7-0.5c-0.2-0.1-0.3-0.2-0.5-0.3c-0.1,0-0.2,0-0.2-0.1c-0.2-0.2-0.4-0.4-0.7-0.5c-3.7-2.4-5.2-3.4-5.5-3.5
			c-0.2-0.1-0.4-0.2-0.6-0.4c-0.7-0.5-1.3-0.9-2-1.3c-0.4-0.2-0.9-0.5-1.3-0.8c-0.7-0.5-1.5-1-2.3-1.4c-0.2-0.1-0.9-0.5-1.6-1
			c-1-0.7-4.4-2.8-5.9-3.6c-0.3-0.2-1-0.6-1.6-1c-0.5-0.3-0.9-0.6-1.4-0.8c-0.3-0.2-0.6-0.3-0.9-0.5c-0.4-0.2-0.8-0.5-1.2-0.7
			c-0.3-0.1-0.5-0.3-0.7-0.4c-0.2-0.2-1.7-1-5.4-3.1c-0.5-0.3-1.1-0.6-1.3-0.8c-0.2-0.2-0.7-0.4-1-0.6c-0.3-0.2-0.9-0.5-1.2-0.7
			s-0.9-0.5-1.2-0.7c-0.3-0.2-0.9-0.6-1.3-0.8c-0.4-0.3-0.9-0.5-1.3-0.8c-0.6-0.3-1.2-0.7-1.8-1.1c-0.4-0.3-0.8-0.5-1.3-0.8
			c-0.3-0.1-0.5-0.3-0.8-0.5c-0.4-0.3-1.1-0.7-1.7-1c-0.4-0.2-0.8-0.5-1.2-0.7c-0.3-0.2-0.6-0.4-0.9-0.6c-0.4-0.2-0.7-0.4-0.7-0.5
			c0-0.1-0.1-0.1-0.3-0.1c-0.1,0-0.3,0-0.4-0.1c-0.3-0.3-0.7-0.6-1.1-0.8c-0.6-0.3-1.2-0.7-1.3-0.8c-0.1-0.1-0.7-0.4-1.2-0.7
			c-0.5-0.3-1.2-0.7-1.4-0.9c-0.2-0.1-0.8-0.5-1.2-0.7c-0.3-0.1-0.6-0.3-0.8-0.6c0-0.1-0.1-0.1-0.2-0.1c-0.6-0.3-1.1-0.6-1.6-0.9
			c-4.4-2.8-5.5-3.6-6.6-4.3c-1.7-1.2-4.1-2.7-5.7-3.8c-0.7-0.5-2.7-1.8-4.4-3c-1.6-1.1-3.3-2.3-3.7-2.6c-0.9-0.6-6.7-4.8-7.4-5.4
			c-0.4-0.3-0.7-0.5-1.1-0.7c-0.3-0.2-0.6-0.4-0.9-0.6c-0.3-0.3-1.8-1.5-4.2-3.3c-0.8-0.6-1.9-1.4-2.3-1.8c-0.3-0.3-0.6-0.5-1-0.7
			c-0.5-0.3-0.9-0.7-1.4-1.1c-0.5-0.4-1-0.8-1.5-1.2c-0.2,0-0.3-0.1-0.3-0.2c-0.4-0.4-0.8-0.8-1.3-1.1c-0.7-0.5-1.4-1-1.5-1.1
			c-0.1-0.1-0.5-0.5-1-0.8c-0.4-0.4-1.5-1.3-2.4-2c-0.9-0.7-1.7-1.4-2-1.6c-0.4-0.3-0.8-0.6-1.2-1c-0.4-0.4-1.3-1.2-2-1.8
			c-0.7-0.6-1.5-1.3-1.7-1.5c-0.3-0.2-0.9-0.8-1.4-1.2c-1.7-1.5-8.9-8.2-9.8-9.1c-0.2-0.2-0.3-0.3-0.5-0.5
			c-1.5-1.3-9.5-9.8-12.1-12.8c-0.6-0.7-1.2-1.4-1.3-1.5c-0.2-0.2-1.6-1.8-2.6-3.1c-0.4-0.5-1-1.2-1.3-1.6c-0.4-0.4-0.9-1-1.1-1.3
			c-0.2-0.3-0.6-0.9-0.9-1.2c-0.3-0.3-0.9-1.1-1.3-1.7c-0.3-0.5-0.7-0.9-1.1-1.4c-0.2-0.3-0.5-0.6-0.6-0.9c-0.2-0.3-0.6-0.9-0.9-1.3
			c-0.2-0.3-0.4-0.5-0.5-0.9c0-0.1,0-0.2-0.1-0.2c-0.7-0.7-1.2-1.5-1.8-2.4c-0.2-0.3-0.6-1-1-1.5c-0.8-1.1-1.8-2.7-2.3-3.5
			c-0.2-0.3-0.6-1-0.9-1.4c-0.6-0.9-1.2-1.8-1.7-2.7c-0.1-0.1-0.6-1.2-1.3-2.3c-1.6-2.8-5.2-10.2-5.2-10.5c-0.2-0.5-0.4-1-0.6-1.5
			c-1.4-3.2-1.9-4.6-1.9-5c0.4-0.5,0.8-0.9,1.3-1.3c0.5-0.4,0.9-0.8,1.3-1.2c0-0.1,0.3-0.3,0.6-0.6c0.8-0.6,1.7-1.3,2.4-2
			c0.6-0.5,1.8-1.6,2.8-2.4c1-0.8,2-1.7,2.3-2c0.3-0.3,0.8-0.7,1-0.8c0.5-0.4,1.2-1,1.1-1.1c-0.5,0.2-0.9,0.4-1.3,0.7
			c-0.7,0.4-1.6,1-2,1.2c-0.4,0.2-1.2,0.7-1.7,1.1c-2.1,1.4-4.3,2.7-6.5,4c-0.6,0.3-1.1,0.7-1.6,1.1c-0.5,0.6-0.9,0.2-1.3-1.2
			c-0.2-0.6-0.6-2.1-0.9-3.2c-1.2-4.1-2-8.4-2.6-12.6c-0.1-0.9-0.2-2.1-0.3-2.6c-0.2-1.2-0.5-6.8-0.5-9.9l0-2.1l-0.9,2.6
			c-0.9,2.5-1,3-1.3,4.1c-0.7,2.4-1.1,4.1-1.3,5.1c-0.1,0.7-0.4,2-0.6,3c-0.4,2.3-0.8,4.9-1,7.6c-0.2,4.4-0.2,8.8,0,13.2
			c0.1,0.8,0.1,1.6,0.1,2.4c-0.5,0.5-1,0.9-1.6,1.2c-0.9,0.5-2.3,1.5-3.3,2.1c-0.6,0.4-1.2,0.8-1.9,1.1c-0.3,0.2-0.7,0.4-0.9,0.7
			c-0.3,0.3-0.6,0.5-0.9,0.7c-0.6,0.3-1.1,0.6-1.6,1c-0.2,0.1-0.4,0.2-0.6,0.3c-0.2,0.1-1,0.6-1.7,1.1c-3.4,2.2-6.5,4.2-6.6,4.2
			c-0.5,0.2-0.9,0.5-1.3,0.8c-0.4,0.3-0.9,0.6-1.4,0.8c-0.1,0-0.2,0.1-0.2,0.1c-0.6,0.5-1.2,1-1.9,1.4c-0.1,0-5.3,3.4-6.4,4.1
			c-0.2,0.1-0.3,0.2-0.5,0.3c-0.4,0.2-0.8,0.5-1.2,0.8c-0.4,0.3-0.8,0.6-1.3,0.8c-0.3,0.2-0.7,0.4-1,0.6c-0.5,0.3-1.7,1.2-2.7,1.8
			c-1,0.7-2,1.3-2.2,1.4c-0.1,0.1-1,0.7-2,1.3c-0.9,0.6-1.9,1.3-2,1.4c-0.1,0.1-0.3,0.2-0.5,0.3c-0.1,0-1.8,1.1-3.9,2.5
			c-2,1.4-3.9,2.7-4.2,2.9c-0.3,0.2-1,0.7-1.6,1.1c-1.2,0.9-3.1,2.2-6,4.1c-1.1,0.8-2.4,1.6-2.8,1.9c-0.4,0.3-0.9,0.6-1,0.7
			c-0.1,0.1-0.7,0.5-1.3,0.9s-1.3,0.9-1.6,1.2c-0.3,0.2-0.9,0.6-1.3,0.9c-0.4,0.3-0.8,0.6-1,0.7c-0.2,0.1-0.4,0.3-0.6,0.4
			c-0.3,0.3-2.4,1.8-5.7,4c-1,0.6-1.8,1.2-1.8,1.3c-0.1,0.1-1.7,1.3-2.7,2c-0.3,0.2-1.1,0.7-1.7,1.2c-0.7,0.5-1.6,1.2-2.1,1.5
			c-0.5,0.3-1.7,1.2-2.7,2c-1,0.8-1.9,1.4-1.9,1.4c-0.2,0.1-0.3,0.2-0.5,0.3c-0.2,0.2-0.5,0.4-0.8,0.6c-0.2,0.1-0.7,0.5-1.1,0.8
			c-0.2,0.2-0.5,0.4-0.8,0.5c-0.9,0.6-1.7,1.2-2.5,1.8c-0.1,0.1-0.3,0.2-0.5,0.3c-0.2,0.1-0.4,0.2-0.6,0.4c-0.6,0.5-1.2,1-1.9,1.5
			c-0.8,0.6-1.6,1.1-1.7,1.2c-0.5,0.4-1.1,0.8-1.6,1.2c-0.3,0-0.5-0.4-0.7-1.6c-0.1-0.8-0.3-2-0.5-2.6c-0.1-0.7-0.3-1.8-0.4-2.4
			c-0.1-0.6-0.2-1.9-0.4-2.9c-1.5-10.9-2.3-21.9-2.4-32.9c-0.1-6.2,0.3-17.8,0.9-23.9c0.5-5.1,0.6-6.8,1.2-11
			c0.5-3.8,1.3-9.4,1.7-11.9c0.1-0.5,0.2-1.2,0.3-1.7c0.1-0.5,0.2-1.1,0.3-1.4c0.1-0.3,0.2-0.8,0.2-1.2c0.1-0.4,0.3-1.5,0.5-2.6
			c0.2-1,0.5-2.7,0.8-3.7c0.2-1,0.5-2.3,0.7-3c0.3-1.3,0.7-2.8,0.9-3.3c0.1-0.4,0.6-2.3,0.8-2.9c0-0.3,0.1-0.5,0.2-0.7
			c0.1-0.2,0.3-1,0.6-1.8c0.8-2.6,1.6-5.1,2.7-7.6c0.1-0.3,0.3-0.9,0.5-1.3c0.3-0.8,1.7-4.2,2.8-6.6c0.6-1.3,4-8.2,4.2-8.4
			c0.1-0.1,0.3-0.5,0.5-0.8c0.2-0.4,0.6-1,0.8-1.4c0.2-0.4,0.6-1,0.8-1.3c0.2-0.3,0.7-1.1,1.1-1.8c0.3-0.4,0.5-0.8,0.8-1.3
			c0,0,0.5-0.9,1.2-1.8c0.6-1,1.4-2,1.6-2.4c0.2-0.4,0.6-0.9,0.8-1.1c0.2-0.2,0.7-0.9,1.1-1.5c0.4-0.6,0.8-1.1,0.9-1.2
			c0.1-0.1,0.2-0.2,0.2-0.3c0.2-0.4,1.3-1.8,2.4-3.1c0.5-0.6,1.2-1.5,1.5-1.9c1.4-1.7,4.1-4.6,7.4-7.9c2.3-2.4,4.7-4.6,7.3-6.6
			c0.7-0.5,1.6-1.3,2.1-1.7c0.6-0.5,1.1-0.9,1.7-1.4c1-0.6,1.9-1.4,2.8-2.1c0.3-0.3,0.6-0.5,1-0.7c0.3-0.2,0.7-0.4,0.9-0.6
			c0.8-0.6,1.7-1.2,3.9-2.6c1.6-1,2-1.2,2.2-1.4c0.1,0,0.2-0.1,0.3-0.2c0.9-0.6,1.9-1.1,2.9-1.6c0.5-0.2,1.2-0.6,1.6-0.9
			c1.9-1.1,3.5-1.9,3.8-2c0.2-0.1,1.3-0.5,2.4-1.1c2-0.9,2.8-1.3,3.8-1.7c0.3-0.1,1.2-0.5,1.9-0.8s2.1-0.8,2.9-1.1
			c0.8-0.3,1.6-0.6,1.8-0.7c0.2-0.1,0.3-0.1,0.5-0.2c0.3,0,0.5-0.1,0.8-0.3c0.3-0.2,0.7-0.3,1.1-0.4c0.3-0.1,1.3-0.4,2.2-0.6
			c3.3-1.1,6.7-2,10.1-2.7c0.6-0.1,1.5-0.3,1.9-0.4c1.8-0.4,3.5-0.7,4.6-0.8c0.7-0.1,1.8-0.2,2.4-0.3c8-1,16.1-1.2,24.1-0.5
			c0.7,0.1,2.1,0.2,3,0.3c0.9,0.1,2,0.2,2.4,0.3s1.4,0.2,2.2,0.3c0.8,0.1,2.1,0.3,2.8,0.5s1.8,0.4,2.5,0.5c2,0.4,3.9,0.9,5.9,1.5
			c2.8,0.8,3.2,1,4,1.1c0.4,0.1,0.7,0.2,1.1,0.4c0.2,0.1,0.5,0.2,0.8,0.3c0.2,0,0.4,0.1,0.5,0.1c0.4,0.2,0.8,0.4,1.3,0.5
			c0.5,0.2,1.6,0.6,2.3,0.8c0.8,0.3,1.5,0.6,2.2,1c0.4,0.2,0.9,0.4,1.3,0.6c0.4,0.1,7,3.4,7.6,3.7c0.7,0.4,2.9,1.7,3.9,2.3
			c1.7,1,6.3,4.1,8.1,5.5c0.5,0.4,1.1,0.8,1.3,0.9c1.7,1,10.7,9.3,13.6,12.5c0.2,0.3,0.8,0.9,1.2,1.3c0.7,0.8,1.9,2.2,2.4,2.8
			c0.1,0.2,0.9,1.1,1.6,2c1.4,1.7,1.9,2.4,3.2,4.3c1,1.4,3.7,5.4,3.7,5.5c0.2,0.4,0.4,0.8,0.7,1.1c1,1.5,1.9,3.1,2.8,4.7
			c0.4,0.7,0.7,1.3,0.8,1.4c0.1,0.1,0.5,0.9,1,1.9c0.5,1,1,2,1.3,2.3c0.2,0.2,0.3,0.5,0.4,0.8c0,0.1,0.4,1.1,1,2.2
			c1.4,2.8,2.6,5.6,3.7,8.5c0.1,0.3,0.2,0.6,0.3,1c0.4,0.9,2.8,7.7,3.6,10.5c0.2,0.7,0.5,1.7,0.7,2.2c0.2,0.5,0.4,1.3,0.5,1.6
			c0.1,0.4,0.3,1.2,0.5,1.8c0.7,2.6,2.6,10.7,2.8,12.4c0.1,0.5,0.2,1.4,0.3,1.8c0.1,0.4,0.2,1.3,0.3,1.9l0.3,2
			c0.1,0.5,0.2,1.4,0.3,2.1c0.1,0.6,0.2,1.6,0.3,2.1c0.2,1,0.4,3.3,0.8,6.8c0.1,0.9,0.2,1.9,0.3,2.2c0.1,0.6,0.1,0.5,0.2-0.4
			c0.1-0.5,0.2-1.4,0.2-1.8c0-0.5,0.2-1.7,0.3-2.7c1.1-11.2,1.2-27.5,0.3-36.7l-0.3-3.6c-0.1-1.1-0.2-2.4-0.3-3s-0.2-1.6-0.3-2.4
			c-0.6-4.5-2-12.6-2.5-14.1c-0.1-0.3-0.1-0.6-0.1-0.9c0-0.2-0.1-0.5-0.1-0.7c-0.2-0.4-0.3-0.9-0.4-1.4c-1.7-7-3.9-13.8-6.7-20.4
			c-1-2.4-3.4-7.7-3.8-8.3c-0.2-0.3-1.3-2.4-2.2-4.1c-0.1-0.3-0.3-0.6-0.6-0.9c-0.1-0.1-0.1-0.2-0.1-0.3c-0.2-0.4-0.4-0.8-0.7-1.2
			c-0.3-0.3-0.5-0.7-0.7-1.1c-0.2-0.5-0.5-0.9-0.8-1.4c-0.4-0.7-0.8-1.3-0.8-1.3c-0.7-1.1-1.4-2.2-2.2-3.3c-0.2-0.3-0.4-0.5-0.6-0.8
			c-0.2-0.3-0.4-0.6-0.6-0.9c-0.2-0.2-0.5-0.6-0.7-0.9c-0.2-0.2-0.7-0.9-1.1-1.4c-0.4-0.5-0.9-1.2-1.1-1.4c-0.5-0.7-1.9-2.4-2.2-2.8
			c-0.2-0.2-0.7-0.8-1.1-1.3c-2.6-3.1-5.4-6-8.3-8.7c-0.9-0.9-2-1.9-2.5-2.3c-1.1-1-2.2-1.9-3.4-2.7c-0.5-0.4-1-0.8-1.1-0.9
			c-0.4-0.4-0.8-0.7-1.2-1c-0.6-0.5-1.7-1.3-2.5-1.8c-0.7-0.5-1.8-1.3-2.3-1.7c-0.4-0.2-0.8-0.5-1.1-0.8c-0.1-0.1-0.2-0.2-0.3-0.2
			c-0.3-0.1-0.6-0.3-0.9-0.5c-1.4-1-2.9-1.9-4.5-2.7c-0.1,0-0.2-0.1-0.2-0.1c0-0.1-0.1-0.2-0.3-0.2c-0.2,0-1.1-0.5-2.1-1.1
			c-1.8-1-3.9-2.1-5.6-2.8c-0.4-0.2-1.3-0.6-1.8-0.8c-0.6-0.3-1.5-0.7-2.1-0.9c-0.6-0.2-1.3-0.5-1.6-0.6c-0.5-0.2-1.8-0.7-4.3-1.6
			c-0.5-0.2-1.1-0.4-1.2-0.5c-0.2-0.1-0.5-0.2-0.7-0.2c-0.9-0.2-1.5-0.4-3.1-0.9c-1.9-0.6-5.6-1.6-7.1-1.9c-0.5-0.1-1.3-0.3-1.7-0.4
			c-1-0.2-4.1-0.8-5.7-1c-0.6-0.1-1.2-0.2-1.8-0.3c-0.4-0.1-0.7-0.1-1.1-0.1c-0.5,0-0.9-0.1-1.4-0.2c-0.6-0.1-1.3-0.2-1.9-0.2
			c-0.6,0-2.1-0.2-3.3-0.3c-1.2-0.1-2.6-0.2-3-0.2C-5599.3,12886.1-5606.1,12886-5607.2,12886.1z"/>
		<path id="Path_4861" class="st0" d="M-5536.9,12996.7c-1.1,0.4-2.1,0.8-3.1,1.4c-0.8,0.5-3.1,2.2-3.2,2.3
			c-0.1,0.1-0.9,0.8-1.9,1.7c-2.1,1.8-7,6.6-9,8.9c-2,2.3-3.1,3.6-3.5,4.1c-0.2,0.2-0.5,0.6-0.8,0.9c-2,2.6-3.9,5.2-5.7,8
			c-0.5,0.9-1.9,3.4-2.4,4.5c-1.2,2.5-1.3,3-1.1,4.3c0.2,1.6,1.3,3,2.9,3.6c1.7,0.8,3.6,1.2,7.5,1.4c3.6,0.2,10.3,0.7,12,1
			c1.8,0.2,3.1,1.1,3.2,2.1c0,0.5-0.1,0.5-2.7,1.8c-1.5,0.7-2.8,1.4-2.9,1.4c-0.4,0.1-0.8,0.3-1.2,0.5c-0.5,0.3-1.4,0.7-2,0.9
			c-0.5,0.2-1.6,0.7-2.4,1.1c-0.8,0.4-1.5,0.7-1.5,0.7c0,0-0.7,0.3-1.5,0.7c-0.8,0.4-1.6,0.7-1.8,0.8c-0.2,0.1-0.9,0.4-1.6,0.7
			c-0.7,0.3-1.6,0.7-1.9,0.8s-1.1,0.5-1.8,0.8c-1.1,0.5-2.1,1-3.2,1.5c-0.1,0-0.9,0.4-1.8,0.8c-0.9,0.4-2.8,1.3-4.1,2
			c-5.7,2.7-7.3,3.7-8.4,5c-0.7,0.8-0.7,1.3,0,1.5c1.8,0.1,3.5-0.1,5.2-0.4c1.5-0.3,2.7-0.6,4.6-0.8c0.7-0.1,1.6-0.2,1.9-0.3
			c0.7-0.2,4.9-1,5.9-1.1c1.2-0.2,3.9-0.7,5.6-1.2c0.9-0.2,1.8-0.4,2-0.4c0.6-0.1,1.1-0.3,1.6-0.5c0.2-0.1,0.4-0.1,0.7-0.1
			c0.2,0,0.5,0,0.6-0.2c0-0.1,0.3-0.2,0.5-0.2c0.2,0,0.4,0,0.5-0.1c0.2-0.1,0.4-0.2,0.6-0.3c1.7-0.6,3.4-1.2,5-2
			c0.3-0.1,0.8-0.3,1.1-0.5c0.8-0.5,1.5-1.1,2.1-1.8c0.3-0.4,0.6-0.7,1-1c0.5-0.5,1.5-1.6,2.2-2.5c0.7-0.8,1.3-1.5,1.3-1.5
			c0.9-1.2,1.8-2.5,2.6-3.8c1.6-2.9,2.8-6,3.5-9.2c0.3-1.3,0.7-2.7,0.8-3.3c0.8-2.9-0.7-4.7-4.9-6c-1.2-0.5-2.5-0.6-3.8-0.4
			c-7.7,0.4-8.9,0.3-11.2-0.3c-1.9-0.5-4.5-2.1-4.5-2.9c0.6-0.9,1.4-1.8,2.3-2.5c0.1-0.1,0.8-0.6,1.5-1.1c2.6-2,5.5-3.6,8.6-4.6
			c1.2-0.5,2.5-0.6,3.8-0.4c2.5,0.1,3.1,0.3,3.9,1.1c0.9,1,2.2,1.7,3.6,1.9c0.9,0.2,1.3-0.3,1.8-2.1c0.7-2.1,1.1-4.3,1.4-6.6
			c0.4-3.3,0.3-4-0.2-5.1c-0.2-0.4-0.5-0.8-0.7-1.2c-0.1-0.1-0.2-0.3-0.3-0.5c-0.9-1.2-2-2.2-3.2-3
			C-5534.5,12996.7-5535.7,12996.5-5536.9,12996.7z"/>
		<path id="Path_4862" class="st0" d="M-5827.9,13353.4c-0.1,0.8,0,1.5,0.1,2.3c0.1,1.1,0.3,3.4,0.4,5c0.1,1.7,0.3,3.9,0.4,4.9
			c0.1,1,0.3,2.7,0.4,3.7c0.1,0.8,0.2,1.7,0.3,2.5c0.1,0.5,0.2,1,0.2,1.5c0.2,1.7,0.7,5.3,1.3,7.7c0.1,0.4,0.3,1.4,0.4,2.2
			c0.1,0.8,0.3,1.8,0.4,2.1c0.1,0.4,0.3,1,0.3,1.5c0.1,0.5,0.2,1.2,0.3,1.5c0.3,1.5,0.9,4,1,4.5c0.1,0.3,0.2,1.1,0.4,1.7
			c0.1,0.6,0.3,1.4,0.4,1.7c0.1,0.3,0.3,1.1,0.4,1.6c1,4.1,1.8,6.8,2.6,9.3c0.1,0.4,0.2,0.8,0.3,1.3c0.1,0.5,0.2,1,0.4,1.5
			c0.2,0.7,0.6,2,0.9,3c0.3,1,0.9,2.8,1.3,4.2c0.4,1.4,1,3,1.2,3.6c0.1,0.5,0.3,0.9,0.5,1.3c0.1,0.1,0.1,0.3,0.1,0.5
			c0,0.2,0,0.4,0.1,0.5c0.1,0.1,0.5,1.3,1,2.6c0.8,2.4,2.7,7.5,3.1,8.4c0.1,0.3,0.4,0.9,0.6,1.5c0.2,0.5,0.5,1.2,0.6,1.5
			c0.3,0.8,1.4,3.4,1.8,4.3c0.2,0.4,0.4,1,0.5,1.3c0.1,0.3,0.5,1.2,0.8,2c0.3,0.8,0.8,1.8,0.9,2.2c0.7,1.5,1.3,3.1,1.5,3.4
			c0.1,0.2,0.5,1.1,1,2.1c0.5,1,0.8,1.8,0.8,1.9c0,0,0.4,1,1,2.1s1,2.1,1,2.2c0,0.1,6.3,12.8,6.4,12.9c0.2,0.2,0.3,0.5,0.4,0.7
			c0.2,0.4,0.6,1.2,1,1.9c0.4,0.7,0.9,1.8,1.3,2.5c0.2,0.5,0.5,0.9,0.7,1.3c0.2,0.2,0.3,0.5,0.4,0.7c0.7,1.4,2,3.8,2.2,4
			c0.3,0.4,0.6,0.9,0.8,1.3c0.2,0.4,0.4,0.8,0.7,1.2c0.2,0.3,0.3,0.5,0.5,0.8c0.2,0.4,0.6,1.1,0.9,1.6c0.6,0.9,2.2,3.6,2.5,4.1
			c0.1,0.2,0.5,0.8,0.8,1.3c0.2,0.3,0.4,0.7,0.6,1c0,0,0.4,0.7,0.9,1.4c0.5,0.7,0.9,1.4,0.9,1.4c0,0,0.4,0.6,0.8,1.3
			c0.3,0.4,0.6,0.9,0.8,1.4c0,0.1,0.1,0.1,0.1,0.2c0.1,0,0.2,0.2,0.4,0.4c0.2,0.4,0.4,0.7,0.6,1c0.2,0.3,0.5,0.8,0.7,1
			c0.2,0.4,3.2,4.8,3.5,5.2c0.2,0.2,1.7,2.4,2.8,4c0.5,0.7,1.2,1.6,1.5,2.1c0.6,0.8,1.2,1.6,1.7,2.5c0.1,0.1,0.2,0.2,0.2,0.3
			c0.1,0.1,1.7,2.1,2.3,3c1.4,2,5.4,7.1,5.8,7.4c0.1,0.1,0.2,0.3,0.3,0.4c0,0.1,0,0.2,0.1,0.3c0.3,0.3,0.6,0.7,0.9,1
			c0.8,1,1.7,2,3.2,3.7c2.2,2.5,2.6,3,2.9,3.3c0.1,0.2,0.3,0.4,0.5,0.5c0.3,0.3,0.6,0.6,0.9,1c0.4,0.4,1.4,1.6,2.3,2.5
			c0.9,1,2.1,2.3,2.7,3c1.4,1.5,10.9,11,12.5,12.5c2.2,2,6.9,6.2,8.1,7.2c0.4,0.3,1.5,1.2,2.4,2c0.9,0.7,1.7,1.4,1.8,1.5
			c0.1,0.1,0.4,0.3,0.7,0.6c0.3,0.2,0.8,0.6,1.1,0.8c0.3,0.2,0.8,0.6,1.2,0.9c0.3,0.2,0.5,0.4,0.7,0.6c0,0.1,0.6,0.5,1.2,1
			c1.7,1.2,2.6,1.9,2.9,2.2c0.2,0.2,0.4,0.3,0.7,0.5c0.8,0.5,1.6,1,2.3,1.6c1.7,1.3,9.9,6.7,11.3,7.5c0.4,0.2,0.7,0.4,1,0.7
			c0.3,0.3,0.7,0.5,1.1,0.6c0.4,0.2,0.7,0.4,0.7,0.5c0,0.1,0.1,0.1,0.2,0.1c0.4,0.2,0.8,0.4,1.2,0.7c0.4,0.3,0.8,0.5,1.2,0.7
			c0.3,0.1,0.5,0.2,0.7,0.4c0.5,0.3,3.4,1.9,4.2,2.3c0.2,0.1,0.4,0.2,0.4,0.3c0,0.1,0.1,0.1,0.3,0.1c0.2,0,0.4,0.1,0.6,0.2
			c0.3,0.2,4.7,2.4,5.4,2.7c0.2,0.1,1.2,0.5,2.2,1c1,0.5,2.1,1,2.3,1c0.4,0.1,0.8,0.3,1.1,0.5c0.3,0.2,0.6,0.3,0.9,0.4
			c0.3,0.1,0.6,0.2,0.9,0.3c1.4,0.6,1.7,0.8,2.5,1.1c0.7,0.2,1.5,0.6,2.9,1.2c0.3,0.1,0.9,0.3,1.3,0.4c0.5,0.1,1.6,0.5,2.5,0.9
			c0.9,0.3,1.9,0.7,2.2,0.8c0.6,0.2,1.3,0.4,1.9,0.6c0.4,0.2,3.3,1,5,1.5c0.8,0.2,2,0.5,2.7,0.7c1.6,0.5,3.4,0.9,4.1,1
			c0.5,0.1,1.1,0.2,1.6,0.4c0.6,0.2,1.6,0.4,2.2,0.5c2,0.3,4.6,0.8,5.3,1c0.4,0.1,0.9,0.2,1.3,0.2c0.7,0,1.4,0.1,2.1,0.2
			c3.8,0.6,7.6,1,11.4,1c3.9,0.1,12.8-0.1,15.1-0.4c0.8-0.1,2.5-0.3,3.8-0.4c4-0.4,6.2-0.7,8-1c0.5-0.1,1.4-0.3,1.9-0.3
			c1.5-0.2,2.7-0.5,3.4-0.7c0.4-0.1,0.8-0.2,1.1-0.3c1.5-0.3,3.9-0.9,6.1-1.5c1.1-0.3,2.3-0.6,2.6-0.7c0.8-0.2,2.4-0.7,2.8-0.9
			c0.2-0.1,0.6-0.2,1-0.3c0.4-0.1,0.8-0.2,1-0.3c0.2-0.1,0.8-0.3,1.3-0.5c1.1-0.4,5.1-1.8,5.6-2c0.2-0.1,0.6-0.3,1-0.4
			c1.1-0.4,5.1-2.1,5.8-2.4c5.3-2.4,8.9-4.2,10.5-5.1c0.3-0.2,0.6-0.4,1-0.5c0.1,0,1.2-0.6,3.8-2.1c0.5-0.3,1.4-0.8,2-1.1
			c0.6-0.3,1.6-0.9,2.3-1.4c0.7-0.4,1.2-0.8,1.3-0.8c0.3-0.1,0.6-0.3,0.8-0.5c0.3-0.2,0.5-0.4,0.8-0.5c0.5-0.3,1-0.6,1.4-0.9
			c0.5-0.3,1-0.7,1.5-0.9c0.1,0,0.2-0.1,0.2-0.1c0.3-0.3,0.6-0.5,1-0.7c0.5-0.3,1.7-1.1,2.6-1.7s1.7-1.2,1.7-1.2
			c0.4-0.2,0.8-0.5,1.2-0.8c5.3-3.9,5.6-4.1,6.1-4.6c0.2-0.2,0.8-0.6,1.3-1c1.1-0.9,4.1-3.2,4.3-3.4c0.1-0.1,0.5-0.4,0.9-0.8
			c0.4-0.3,1.1-0.9,1.6-1.4c0.3-0.3,0.7-0.6,1-0.8c0.1,0,0.2-0.1,0.3-0.2c0.2-0.3,0.5-0.5,0.8-0.8c0.4-0.3,1-0.9,1.5-1.3
			c0.5-0.4,1.1-1,1.4-1.2c1-0.9,4.7-4.3,7.9-7.4c4.2-4,12.9-12.9,14.4-14.8c0.3-0.3,0.9-1,1.4-1.5c0.5-0.5,1.3-1.4,1.7-1.9
			c0.4-0.5,0.9-1,0.9-1.1c0.1,0,0.6-0.7,1.3-1.5c0.7-0.8,1.5-1.7,1.8-2.1c0.4-0.4,1-1.1,1.4-1.6c0.7-0.9,1.4-1.7,1.7-2
			c0.1-0.1,0.5-0.6,1-1.2c0.3-0.4,0.6-0.8,1-1.2c0.1-0.1,0.5-0.5,0.8-1c0.3-0.5,0.8-1,0.9-1.2c0.2-0.2,0.9-1.1,1.6-2l1.5-1.8
			c1.7-2.1,4.2-5.2,5-6.3c0.6-0.8,1.3-1.7,1.6-2c0.2-0.2,0.4-0.5,0.5-0.7c0-0.1,0.1-0.3,0.2-0.4c0.4-0.4,2.5-3.2,3.5-4.6
			c0.5-0.7,1.3-1.8,1.8-2.5c0.4-0.4,0.7-0.8,1-1.3c0.2-0.4,0.5-0.8,0.8-1.1c0.4-0.5,1.5-2,2.4-3.3c1.7-2.4,2.9-4.1,3.1-4.2
			c0.1-0.1,1-1.4,1.6-2.3c0.1-0.1,0.5-0.8,1-1.4c0.5-0.6,1.1-1.5,1.3-1.9c0.3-0.4,0.8-1.2,1.2-1.7c0.4-0.5,1-1.5,1.4-2
			c0.2-0.4,0.5-0.7,0.8-1c0.1,0,0.1-0.1,0.1-0.3c0-0.1,0-0.3,0.1-0.4c0.1,0,1.4-2,3-4.3c1.6-2.4,3.1-4.7,3.5-5.2
			c0.3-0.3,0.5-0.7,0.6-1.1c0.1-0.3,0.3-0.5,0.5-0.7c0.4-0.5,0.7-1,1-1.5c0.2-0.3,0.3-0.6,0.5-0.8c0.6-0.8,3.5-5.3,3.5-5.4
			c0-0.1,0.1-0.3,0.2-0.3c0.4-0.6,0.8-1.1,1.2-1.8c1.6-2.6,2-3.3,2.2-3.5c0.5-0.8,1.5-2.3,1.5-2.4c0.3-0.5,0.5-1,0.8-1.4
			c0.5-0.7,1.2-1.9,1.6-2.6s1.2-1.9,1.6-2.7c0.5-0.8,1.1-1.8,1.3-2.1c0.2-0.4,0.9-1.4,1.4-2.3c0.5-0.9,1.1-1.8,1.1-1.9
			c0.1-0.1,0.6-1,1.1-1.8c0.4-0.6,0.7-1.1,0.9-1.7c0.1-0.2,0.2-0.4,0.3-0.5c0.1-0.1,0.3-0.2,0.3-0.4c0-0.1,0.6-1.1,1.3-2.3
			c0.7-1.2,1.5-2.5,1.7-3l0.4-0.7l-0.9,0.9c-1.4,1.5-3.7,4-4.2,4.6c-0.3,0.3-0.6,0.7-0.8,0.9c-0.5,0.5-3.3,3.6-4.3,4.7
			c-0.4,0.5-1.1,1.2-1.4,1.5c-0.7,0.7-1.8,2-4,4.3c-1.6,1.8-3.1,3.3-8.1,8.6c-2.8,3-4.5,4.7-8.9,9.2c-4.9,5-14.8,14.9-19.1,19
			c-3,2.8-6.6,6.3-9.6,9.1c-1.9,1.8-5.1,4.7-7.6,6.9c-0.6,0.6-1.7,1.5-2.3,2.1c-0.6,0.6-1.9,1.7-2.7,2.4c-0.9,0.7-1.9,1.6-2.4,2
			c-3,2.6-4.1,3.6-4.3,3.7c-0.1,0.1-0.9,0.7-1.7,1.4c-0.9,0.7-1.8,1.5-2,1.7c-0.3,0.2-0.8,0.6-1.1,0.9c-0.3,0.3-1.1,0.9-1.6,1.3
			c-0.5,0.4-1.3,1-1.6,1.4c-0.2,0.2-0.5,0.4-0.8,0.6c-0.2,0.1-0.3,0.2-0.4,0.3c-0.2,0.2-0.9,0.8-1.6,1.4c-0.7,0.6-1.6,1.2-1.9,1.5
			c-0.3,0.2-1.4,1-2.3,1.7s-2.2,1.6-2.7,2.1c-0.5,0.4-1.3,1-1.7,1.3c-0.3,0.2-0.6,0.4-0.8,0.6c-0.2,0.2-0.4,0.3-0.7,0.5
			c-0.3,0.2-1.1,0.8-1.7,1.3c-0.6,0.5-1.6,1.2-2.1,1.5c-0.5,0.3-1.4,1-2.1,1.4c-0.6,0.5-1.3,0.9-1.5,1c-0.2,0.1-0.6,0.4-0.9,0.7
			c-0.5,0.4-2.3,1.6-3.1,2.2c-0.1,0.1-0.2,0.2-0.3,0.2c-0.1,0.1-0.2,0.2-0.3,0.2c-0.9,0.5-5.2,3.5-5.3,3.5c-0.4,0.3-0.8,0.6-1.2,0.8
			c-0.6,0.4-1.7,1.1-2.5,1.6c-0.5,0.3-1,0.6-1.5,0.9c-0.2,0.1-0.3,0.2-0.4,0.3c-0.3,0.3-0.7,0.5-1,0.7c-1.1,0.6-2.2,1.2-3.2,2
			c-0.4,0.3-0.8,0.5-1.2,0.7c-0.7,0.3-2,1.1-2.9,1.6c-1,0.6-2.1,1.2-2.5,1.5c-0.4,0.2-1.6,0.8-2.6,1.4c-2.9,1.6-4.7,2.6-7.8,4.1
			c-1.6,0.8-3,1.5-3.1,1.6c-0.7,0.4-4,2-4.1,2c-0.4,0.1-0.8,0.3-1.1,0.5c-2,1-5.9,2.7-6.1,2.7c-0.4,0.1-0.8,0.3-1.1,0.5
			c-0.6,0.2-1.7,0.7-2.4,1c-0.8,0.3-1.6,0.6-1.7,0.7c-0.8,0.4-1.6,0.6-2.4,0.8c-0.2,0-0.3,0-0.4,0.1c-0.2,0.1-4.1,1.5-5.2,1.9
			c-0.3,0.1-1.2,0.4-2,0.6c-2,0.7-3.6,1.1-4.7,1.4c-0.5,0.1-1.2,0.3-1.5,0.4c-3.7,1.1-9.6,2.4-12.4,2.9c-0.9,0.1-1.9,0.3-2.3,0.4
			c-0.4,0.1-0.8,0.2-1.3,0.2c-0.4,0-0.9,0.1-1.3,0.2c-3.1,0.6-6.2,1-9.4,1.2c-1.1,0.1-5.3,0.2-10.4,0.2h-8.5l-2.6-0.4
			c-3.3-0.6-3-0.5-4.9-0.9c-1-0.2-2.1-0.4-2.5-0.5c-0.9-0.2-3.2-0.7-4.5-1c-0.5-0.1-1.2-0.3-1.5-0.3c-0.3-0.1-1-0.2-1.6-0.4
			c-0.5-0.2-1.5-0.5-2.2-0.7c-2-0.6-6.4-2-7.7-2.5c-0.7-0.2-1.4-0.5-1.6-0.6c-0.5-0.2-1.1-0.4-1.6-0.6c-0.6-0.3-2.2-0.9-3.5-1.5
			c-2.4-1-5.1-2.2-5.6-2.5c-0.2-0.1-0.3-0.2-0.5-0.2c-0.3-0.1-3-1.4-3.3-1.6c-0.2-0.1-1.1-0.6-2.1-1.1c-2.9-1.5-4.2-2.2-4.7-2.6
			c-0.2-0.2-0.4-0.3-0.6-0.3c-0.1,0-0.2-0.1-0.2-0.2c0-0.1-0.1-0.2-0.2-0.2c0,0,0,0,0,0c-0.2,0-3.6-2-5-3c-0.4-0.3-1.3-0.8-1.9-1.2
			c-0.6-0.4-1.2-0.8-1.4-0.9l-1.1-0.7c-0.9-0.6-4-2.8-4.1-2.9c-0.3-0.2-0.6-0.5-0.9-0.7c-0.4-0.3-1.2-0.8-1.6-1.2
			c-0.4-0.3-1.3-1-2-1.5c-1.1-0.8-2.2-1.7-3.3-2.7c-0.3-0.3-0.7-0.6-1-0.8c-0.1-0.1-0.8-0.6-1.5-1.2c-0.7-0.6-1.5-1.3-1.9-1.6
			c-7.9-7-15.2-14.5-22.1-22.6c-0.7-0.8-1.4-1.7-1.6-1.9c-0.2-0.2-0.6-0.7-0.8-1.1c-0.3-0.4-0.8-1-1.2-1.4c-0.9-1-0.9-1-6.1-7.7
			c-0.5-0.7-1.4-1.8-1.8-2.4c-0.3-0.4-0.6-0.8-0.9-1.2c-0.3-0.3-0.5-0.6-0.7-1c-0.2-0.3-0.4-0.6-0.7-0.9c-0.1,0-0.1-0.1-0.1-0.2
			c-0.1-0.3-0.2-0.5-0.4-0.7c-0.3-0.3-0.6-0.7-0.8-1c-0.2-0.3-0.9-1.3-1.5-2.2c-0.6-0.9-1.3-1.7-1.4-1.9c-0.1-0.2-0.7-1.1-1.3-1.9
			c-1.6-2.3-1.6-2.3-2.1-3.1c-0.2-0.3-0.4-0.6-0.6-0.8c-0.1,0-0.1-0.1-0.1-0.2c-0.5-0.9-1-1.7-1.6-2.5c-0.2-0.2-0.3-0.4-0.4-0.7
			c-0.4-0.7-0.8-1.4-1.2-2.1c-1.3-1.9-3.4-5.3-4.1-6.6c-0.3-0.6-0.9-1.4-1.2-1.9c-0.3-0.5-1-1.6-1.5-2.4c-1.3-2.2-2-3.4-2.3-3.9
			c-0.1-0.3-0.9-1.5-1.5-2.6c-0.7-1.2-1.3-2.1-1.3-2.2c-0.1-0.2-0.2-0.5-0.4-0.7c-0.2-0.3-0.6-1.1-0.9-1.6c-0.3-0.5-0.7-1.3-1-1.7
			c-0.2-0.4-0.5-0.9-0.7-1.2c-0.1-0.2-0.2-0.3-0.3-0.5c-0.2-0.4-0.4-0.8-0.6-1.2c-0.3-0.6-0.9-1.6-1.2-2.2c-1.5-2.8-2-3.8-2.5-4.6
			c-0.3-0.5-0.9-1.6-1.3-2.5c-0.4-0.9-1.4-2.7-2.2-4.1c-0.7-1.4-1.6-3.1-1.9-3.7c-0.3-0.6-1.3-2.6-2.2-4.4c-0.9-1.8-1.9-3.8-2.3-4.5
			c-0.3-0.7-0.7-1.4-0.8-1.6c-0.1-0.2-0.4-0.9-0.8-1.5c-0.3-0.6-1.5-3-2.5-5.2c-3.4-7-6.7-13.8-7.7-16c-0.6-1.4-1.6-3.5-2.9-6.1
			c-0.7-1.4-1.3-2.6-1.3-2.7c0,0-0.4-1-0.9-2c-0.5-1.1-1.2-2.5-1.5-3.1c-0.3-0.6-0.8-1.6-1-2.2c-1.5-3.1-1.9-4.1-2.3-4.9
			c-0.2-0.3-0.3-0.6-0.4-0.9c0-0.1-1.2-2.8-2.3-5c-0.2-0.5-0.5-1-0.6-1.5c0-0.1-0.4-1.1-2.2-4.8c-0.5-1-1.1-2.3-1.3-2.9
			c-0.2-0.6-0.8-1.8-1.2-2.7c-0.4-0.9-1-2.1-1.2-2.6s-0.7-1.6-1-2.2s-0.7-1.4-0.7-1.6c-0.1-0.2-0.3-0.7-0.5-1.1
			c-0.3-0.6-0.6-1.2-0.8-1.8C-5827.8,13353.2-5827.8,13353.1-5827.9,13353.4z"/>
		<path id="Path_4863" class="st0" d="M-5451.6,13561.4c-0.3,0.5-0.2,0.6,0.1,0.2c0.1-0.2,0.2-0.4,0.2-0.4
			C-5451.4,13561.1-5451.5,13561.2-5451.6,13561.4z"/>
		<path id="Path_4864" class="st0" d="M-5622.9,13609.8c-0.4,0.5-0.8,1.1-1.3,1.5c-0.7,0.8-1.6,1.7-2,2.1c-0.4,0.4-1.4,1.5-2.3,2.5
			c-1.5,1.6-2.9,3.1-5.2,5.7c-3,3.3-5.7,6.8-8.3,10.4c-0.3,0.4-0.6,0.9-0.8,1.1c-0.5,0.7-0.9,1.4-1.3,2.2c0.4,0.6,0.9,1.1,1.5,1.6
			c1.6,1.6,3.4,3.2,5.2,4.6c0.2,0.1,0.5,0.4,0.7,0.5c0.4,0.3,1.1,0.9,3.9,3.1c1,0.8,4.1,3.1,5.2,3.8c0.7,0.5,1.9,1.3,2.7,1.9
			c0.8,0.6,1.9,1.3,2.4,1.6c0.5,0.3,1.5,1,2.2,1.5c0.5,0.4,1,0.7,1.5,1c0.2,0,0.7-0.4,1.6-1.5c0.3-0.3,1-1.1,1.6-1.8
			c4.6-5,7.9-8.6,9.1-10.1c0.7-0.8,1.6-1.8,2.1-2.4c0.5-0.5,1.4-1.6,2-2.3c0.6-0.7,1.9-2.2,2.9-3.3c0.7-0.6,1.3-1.4,1.7-2.3
			c-0.5-0.5-1-1-1.6-1.4c-0.8-0.6-1.9-1.4-2.4-1.8c-0.4-0.3-0.8-0.6-1.2-0.8c-0.2-0.1-0.3-0.2-0.4-0.3c-0.2-0.2-0.4-0.4-0.6-0.5
			c-0.2-0.2-0.7-0.6-1.1-0.8c-0.3-0.3-1-0.8-1.5-1.1c-0.5-0.3-1-0.7-1.5-1.1c-0.3-0.3-1-0.8-1.5-1.2c-0.3-0.2-0.7-0.5-1-0.8
			c-0.1-0.1-0.6-0.5-2.7-2.3c-3-2.6-5.7-5.3-8.3-8.3C-5622.4,13609.8-5622.9,13609.4-5622.9,13609.8z"/>
	</g>
	<g id="Group_5342" transform="translate(105.004 407.912)">
		<g id="Group_5341" transform="translate(0)">
			<path id="Path_4865" class="st0" d="M-5600.1,12894.9c10.2,13,18.4,27.4,24.2,42.9c6.4,17.7,8.7,39.2,2.8,55.8
				c-8.7,24.6-28.3,39.4-49.8,48.9c-13.1,5.8-33.1,11.1-33.1,11.1s41.9-26.2,55.9-65.9c0.9-2.5,4-11.6,4.7-14.2
				C-5585.4,12935.1-5600.1,12894.9-5600.1,12894.9z"/>
			<path id="Path_4866" class="st0" d="M-5687.7,13047.3c0,0,45.4-58.3,35.9-98.1c-2.4-9.5-8.1-18-15.9-23.9
				c-7.3-5.3-15.6-9.2-24.5-11.3c-10.6-2.5-24-2-30.6-1.4c-5,0.5-27.9,4.3-43.4,17.3c-14.9,12.4-22.5,33.7-24.1,39.2
				c-8.7,29.7,16.7,56.4,28.3,67.8c2,1.8,3.5,4.1,4.4,6.7c0,0-11.5,22-34.6,24.6c-16.5,1.9-42.9-11.2-56.7-26.3
				c-13.1-14.4-31.6-40.6-37.8-66.2c-3.7-15.3-7.9-31.4-7.9-44.2c-0.1-19.4,5.4-32.3,5.4-32.3s11,72.4,39.3,108.1
				c12.2,15.4,26.7,27.1,40.4,31.9c10.8,3.7,22.3,4.7,33.5,2.7c0,0-21.9-12.8-32.4-33.5c-6.9-13.6-4.2-36.5-3.6-40.6
				c1-7,7.3-29.2,20.6-45.1c12.7-15.2,32.2-24.1,37-26.7c12-6.5,33.5-11,53.8-9.9c21,1.1,40.7,8,51.6,16.4
				c7.3,5.6,15.9,14.5,21,24.8c4,8.1,5.2,17.4,5.9,24.1c1.7,16.4-7.5,40.4-20.8,57.3C-5661.8,13032.8-5687.7,13047.3-5687.7,13047.3
				z"/>
		</g>
	</g>
</g>
</svg>
